<svg width="20" height="19" viewBox="0 0 20 19" fill="none" xmlns="http://www.w3.org/2000/svg">
<path d="M16.219 0.996508C16.872 1.53692 17.322 2.4098 17.506 3.32385C17.5283 3.3313 17.55 3.34047 17.571 3.3513L19.616 4.34979C19.7303 4.40519 19.8272 4.49396 19.8952 4.60561C19.9633 4.71727 19.9996 4.84715 20 4.97991V18.0331C19.9993 18.1415 19.9747 18.2483 19.9284 18.3451C19.882 18.4418 19.815 18.5259 19.7326 18.5907C19.6503 18.6556 19.5548 18.6994 19.4537 18.7187C19.3526 18.7381 19.2487 18.7324 19.15 18.7023L13.481 17.0135L6.741 18.9746C6.61939 19.0098 6.49086 19.0084 6.37 18.9704L0.474 17.118C0.337721 17.0757 0.21799 16.9882 0.132595 16.8684C0.047201 16.7486 0.00069966 16.603 0 16.453L0 3.16553C0 2.70112 0.428 2.36758 0.855 2.49846L6.557 4.25163L9.455 3.31541C9.49488 3.30298 9.5357 3.29415 9.577 3.28902C9.689 2.59662 10.002 1.93167 10.527 1.2836C11.15 0.513095 12.243 0.0613479 13.308 0.00751813C14.413 -0.0484226 15.257 0.200672 16.218 0.995453M1.333 4.09752V15.9348L6.203 17.4642V5.59315L1.333 4.09752ZM9.542 4.74559L7.536 5.3926V17.2974L12.601 15.8261V12.3483C12.601 11.9641 12.9 11.6527 13.268 11.6527C13.636 11.6527 13.934 11.9641 13.934 12.3493V15.7026L18.667 17.1117V5.42216L17.547 4.87331C17.528 4.98941 17.504 5.1034 17.474 5.21423C17.2565 6.02353 16.8917 6.78035 16.4 7.44236L13.923 10.707C13.8578 10.7928 13.7745 10.8614 13.6797 10.9073C13.585 10.9532 13.4814 10.9751 13.3772 10.9713C13.273 10.9675 13.1711 10.9381 13.0796 10.8854C12.9881 10.8328 12.9095 10.7583 12.85 10.6679L10.535 7.12888C10.153 6.56525 9.885 6.06284 9.734 5.6132C9.63922 5.33256 9.57481 5.04151 9.542 4.74559ZM13.372 1.39865C12.646 1.43559 11.9 1.74379 11.545 2.18182C11.118 2.70956 10.908 3.20353 10.866 3.70383C10.816 4.30651 10.85 4.73187 10.992 5.15301C11.097 5.46438 11.306 5.85913 11.629 6.33515L13.44 9.10264L15.35 6.5853C15.7353 6.06553 16.021 5.47148 16.191 4.83636C16.431 3.94976 16.069 2.64729 15.391 2.08788C14.696 1.51264 14.171 1.35748 13.373 1.39865M13.511 2.13432C14.615 2.13432 15.511 3.06843 15.511 4.22102C15.5096 4.49666 15.4567 4.7693 15.3554 5.02337C15.2541 5.27743 15.1063 5.50794 14.9206 5.70173C14.7349 5.89551 14.5148 6.04877 14.2729 6.15274C14.0311 6.25672 13.7722 6.30938 13.511 6.30771C12.407 6.30771 11.511 5.37361 11.511 4.22102C11.511 3.06843 12.407 2.13432 13.511 2.13432ZM13.511 3.52545C13.4239 3.5249 13.3376 3.54245 13.257 3.5771C13.1763 3.61175 13.103 3.66284 13.041 3.72743C12.9791 3.79201 12.9298 3.86885 12.896 3.95354C12.8622 4.03823 12.8445 4.12912 12.844 4.22102C12.844 4.60521 13.143 4.91658 13.511 4.91658C13.5981 4.917 13.6844 4.89931 13.7649 4.86453C13.8455 4.82974 13.9188 4.77855 13.9807 4.71386C14.0425 4.64917 14.0917 4.57226 14.1254 4.48752C14.1591 4.40277 14.1766 4.31186 14.177 4.21996C14.1757 4.03473 14.1048 3.85761 13.98 3.72743C13.8551 3.59724 13.6865 3.52461 13.511 3.52545Z" fill="black"/>
</svg>
