<svg width="22" height="21" viewBox="0 0 22 21" fill="none" xmlns="http://www.w3.org/2000/svg">
<path d="M8 1H2C1.73478 1 1.48043 1.10009 1.29289 1.27825C1.10536 1.45641 1 1.69804 1 1.95V7.65C1 7.90196 1.10536 8.14359 1.29289 8.32175C1.48043 8.49991 1.73478 8.6 2 8.6H8C8.26522 8.6 8.51957 8.49991 8.70711 8.32175C8.89464 8.14359 9 7.90196 9 7.65V1.95C9 1.69804 8.89464 1.45641 8.70711 1.27825C8.51957 1.10009 8.26522 1 8 1ZM8 12.4H2C1.73478 12.4 1.48043 12.5001 1.29289 12.6782C1.10536 12.8564 1 13.098 1 13.35V19.05C1 19.302 1.10536 19.5436 1.29289 19.7218C1.48043 19.8999 1.73478 20 2 20H8C8.26522 20 8.51957 19.8999 8.70711 19.7218C8.89464 19.5436 9 19.302 9 19.05V13.35C9 13.098 8.89464 12.8564 8.70711 12.6782C8.51957 12.5001 8.26522 12.4 8 12.4ZM20 1H14C13.7348 1 13.4804 1.10009 13.2929 1.27825C13.1054 1.45641 13 1.69804 13 1.95V7.65C13 7.90196 13.1054 8.14359 13.2929 8.32175C13.4804 8.49991 13.7348 8.6 14 8.6H20C20.2652 8.6 20.5196 8.49991 20.7071 8.32175C20.8946 8.14359 21 7.90196 21 7.65V1.95C21 1.69804 20.8946 1.45641 20.7071 1.27825C20.5196 1.10009 20.2652 1 20 1Z" stroke="black" stroke-width="2" stroke-linejoin="round"/>
<path d="M13 12.4H21M17 16.2H21M13 20H21" stroke="black" stroke-width="2" stroke-linecap="round" stroke-linejoin="round"/>
</svg>
