<svg width="22" height="21" viewBox="0 0 22 21" fill="none" xmlns="http://www.w3.org/2000/svg">
<path d="M5.90062 5.75V5.07143C5.90062 3.99162 6.43788 2.95603 7.39419 2.19249C8.35051 1.42895 9.64756 1 11 1C12.3524 1 13.6495 1.42895 14.6058 2.19249C15.5621 2.95603 16.0994 3.99162 16.0994 5.07143V5.75M11 9.82143V16.6071M6.75052 13.2143H15.2495M2.33275 8.99357L1.01032 18.4936C0.984025 18.6832 1.00813 18.8752 1.08105 19.0569C1.15397 19.2387 1.27407 19.4061 1.43351 19.5482C1.59296 19.6904 1.78816 19.8041 2.00637 19.8819C2.22458 19.9598 2.4609 20 2.69991 20H19.3001C19.5391 20 19.7754 19.9598 19.9936 19.8819C20.2118 19.8041 20.407 19.6904 20.5665 19.5482C20.7259 19.4061 20.846 19.2387 20.919 19.0569C20.9919 18.8752 21.016 18.6832 20.9897 18.4936L19.6672 8.99357C19.6212 8.66149 19.4234 8.35464 19.1116 8.13178C18.7999 7.90891 18.3961 7.78569 17.9777 7.78571H4.02235C3.60389 7.78569 3.20013 7.90891 2.88837 8.13178C2.57662 8.35464 2.37878 8.66149 2.33275 8.99357Z" stroke="black" stroke-width="2"/>
</svg>
